<?xml version="1.0" encoding="UTF-8"?>
<svg id="Calque_2" data-name="Calque 2" xmlns="http://www.w3.org/2000/svg" viewBox="0 0 79.09 62.56">
  <g id="B3">
    <g>
      <path d="M11.01,44.63c.43-2.47,.49-4.73,.49-9.91,0-7.13-.46-17.23-.82-22.84-.1-1.51-.2-3.26-.2-4.79,0-2.23,.92-4.25,2.56-6.62,.09,.12,.14,.18,.23,.3,0,2.97,.95,6.39,2.79,11.01-.85,1.06-1.28,1.61-2.14,2.73,.16,5.53,.3,11.09,.3,16.65,0,4.53-.43,7.57-1.15,10.22,.05,0,.08,0,.13,.01,2.43-3.84,4.76-7.24,6.97-9.35,1.81-1.73,4.07-2.74,6.11-2.67,4.11,.14,7.85,4.51,7.85,10.03,0,2.01-.79,4.18-1.71,6.54,.82-.16,2.14-.67,3.39-1.22,.51-.22,.77-.34,1.28-.56,0,1.84,0,2.76,0,4.59-.32,.19-.47,.28-.79,.47-3.78,2.25-7.3,3.71-10.65,3.9-3.35,2.16-7.59,4.12-12.78,2.98-1.12-.25-2.56-.79-3.65-1.43-1.13,1.83-1.7,2.64-2.83,3.88-.11-.23-.16-.35-.26-.58,.2-1.49,.33-3.24,1.12-4.67-1-.76-1.5-1.18-2.5-2.1C3.16,48.29,1.54,45.24,0,42.34c.05-.11,.08-.17,.13-.29,3.02,3.05,6.08,5.42,9.1,6.6,.71-1.52,1.06-2.33,1.77-4.02Zm3.39,5.12c8.61,.82,15.55-3.59,16.99-7.16,0-3.58-3.09-6.9-6.84-6.64-4.24,.29-8.02,6-13.21,13.3,1.22,.29,1.83,.38,3.06,.5Z"/>
      <path d="M50.24,38.63c0,1.05,0,1.57,0,2.62-5.26,2.49-7.89,4.34-13.15,7.49-1.81,1.08-2.3-.19-2.3-1.23,0-.93,.53-2.58,2.3-3.36,5.26-2.32,7.89-3.69,13.15-5.52Z"/>
      <path d="M52.24,37.97c5.32-1.64,10.78-2.63,17.55-3.64,.01-.03,.02-.04,.03-.06-3.81-1.37-7.3-1.6-10.32-1.51-1.87,.06-3.25,.41-4.17,1.02,.16,.31,.24,.46,.39,.77-.39,.63-.59,.95-.99,1.64-.13,.03-.2,.04-.33,.07-.64-.76-.97-1.16-1.61-2.04,.26-2.05,3.19-3.22,7.13-3.2,2.2,.01,5.65-.02,10.78,1.51,1.58,.46,3.55,1,5.62,1.44,1.06,.2,1.6,.31,2.66,.56,.04,.04,.06,.05,.1,.09-.7,1.2-1.04,1.71-1.74,2.61-2.76-1.3-4.6-1.35-5.69-1.26-2.2,.19-3.29,.21-5.49,.51-4.4,.58-9.1,1.83-14.23,4.02-.68,.29-1.03,.45-1.71,.77-1.81,.86-2.3,.24-2.3-.38,0-.55,.53-1.62,2.3-2.24,.8-.28,1.2-.41,2-.66Zm9.37-11.77c1.35,.46,2.66,.88,3.94,1.35-.72,.59-1.61,1.1-2.73,1.51-1.28-.5-2.56-.98-3.88-1.59,.89-.44,1.77-.86,2.66-1.27Z"/>
    </g>
  </g>
</svg>